<?xml version="1.0" encoding="iso-8859-1"?>
<!-- Uploaded to: SVG Repo, www.svgrepo.com, Generator: SVG Repo Mixer Tools -->
<svg height="800px" width="800px" version="1.1" id="Layer_1" xmlns="http://www.w3.org/2000/svg" xmlns:xlink="http://www.w3.org/1999/xlink" 
	 viewBox="0 0 512.004 512.004" xml:space="preserve">
<g>
	<path style="fill:#81943e;" d="M506.452,284.679l-38.585-15.439l-23.146-92.557c-1.96-7.857-9.022-13.374-17.126-13.374h-92.142
		v8.854c0,48.746-39.512,88.249-88.258,88.249H0.004v105.931c0,4.882,3.946,8.828,8.828,8.828H52.97
		c0-24.373,19.756-44.138,44.138-44.138c24.373,0,44.138,19.765,44.138,44.138h194.207h35.31c0-24.373,19.756-44.138,44.138-44.138
		c24.373,0,44.138,19.765,44.138,44.138h44.138c4.873,0,8.828-3.946,8.828-8.828v-73.472
		C512.004,289.269,509.806,286.02,506.452,284.679"/>
	<path style="fill:#596c16;" d="M388.416,313.382H370.76c-4.882,0-8.828-3.946-8.828-8.828s3.946-8.828,8.828-8.828h17.655
		c4.882,0,8.828,3.946,8.828,8.828S393.297,313.382,388.416,313.382"/>
	<path style="fill:#bbdb04;" d="M247.199,260.416H0V101.519c0-4.873,3.955-8.828,8.828-8.828h317.793
		c4.873,0,8.828,3.955,8.828,8.828v70.647C335.448,220.904,295.936,260.416,247.199,260.416"/>
	<g>
		<path style="fill:#93b300;" d="M291.312,145.657H44.14c-4.882,0-8.828-3.946-8.828-8.828s3.946-8.828,8.828-8.828h247.172
			c4.882,0,8.828,3.946,8.828,8.828S296.194,145.657,291.312,145.657"/>
		<path style="fill:#93b300;" d="M273.657,180.968H44.14c-4.882,0-8.828-3.946-8.828-8.828c0-4.882,3.946-8.828,8.828-8.828h229.517
			c4.882,0,8.828,3.946,8.828,8.828C282.485,177.022,278.539,180.968,273.657,180.968"/>
		<path style="fill:#93b300;" d="M256.002,216.278H44.14c-4.882,0-8.828-3.946-8.828-8.828c0-4.882,3.946-8.828,8.828-8.828h211.862
			c4.882,0,8.828,3.946,8.828,8.828C264.829,212.332,260.883,216.278,256.002,216.278"/>
	</g>
	<path style="fill:#cfef18;" d="M379.588,249.209v-41.754c0-4.882-3.946-8.828-8.828-8.828c-4.882,0-8.828,3.946-8.828,8.828v41.754
		c0,15.916,12.95,28.866,28.866,28.866h99.134l-22.069-8.828l-2.207-8.828h-74.858C384.611,260.42,379.588,255.389,379.588,249.209"
		/>
	<g>
		<path style="fill:#1c1c14;" d="M141.243,375.175c0-24.373-19.765-44.138-44.138-44.138s-44.138,19.765-44.138,44.138
			c0,24.373,19.765,44.138,44.138,44.138S141.243,399.548,141.243,375.175"/>
		<path style="fill:#1c1c14;" d="M459.036,375.175c0-24.373-19.765-44.138-44.138-44.138s-44.138,19.765-44.138,44.138
			c0,24.373,19.765,44.138,44.138,44.138S459.036,399.548,459.036,375.175"/>
	</g>
	<g>
		<path style="fill:#C0C0C0;" d="M97.105,392.83c-9.746,0-17.655-7.91-17.655-17.655s7.91-17.655,17.655-17.655
			s17.655,7.91,17.655,17.655S106.851,392.83,97.105,392.83"/>
		<path style="fill:#C0C0C0;" d="M414.898,392.83c-9.746,0-17.655-7.91-17.655-17.655s7.91-17.655,17.655-17.655
			s17.655,7.91,17.655,17.655S424.644,392.83,414.898,392.83"/>
	</g>
</g>
</svg>